<svg xmlns="http://www.w3.org/2000/svg" viewBox="0 0 32 32">
  <rect width="32" height="32" rx="6" fill="#6264A7"/>
  <path d="M16 8c-4.4 0-8 3.6-8 8s3.6 8 8 8 8-3.6 8-8-3.6-8-8-8zm0 2c1.1 0 2.1.3 3 .8-.3.4-.7.8-1.2 1.1-.5-.3-1.1-.5-1.8-.5-1.9 0-3.5 1.6-3.5 3.5 0 .7.2 1.3.5 1.8-.3.5-.7.9-1.1 1.2-.5-.9-.8-1.9-.8-3 0-3.3 2.7-6 6-6zm0 12c-1.1 0-2.1-.3-3-.8.3-.4.7-.8 1.2-1.1.5.3 1.1.5 1.8.5 1.9 0 3.5-1.6 3.5-3.5 0-.7-.2-1.3-.5-1.8.3-.5.7-.9 1.1-1.2.5.9.8 1.9.8 3 0 3.3-2.7 6-6 6z" fill="white"/>
  <circle cx="16" cy="16" r="2" fill="white"/>
</svg>
